<?xml version="1.0" encoding="UTF-8"?>
<!DOCTYPE svg PUBLIC "-//W3C//DTD SVG 1.1//EN" "http://www.w3.org/Graphics/SVG/1.1/DTD/svg11.dtd">
<svg xmlns="http://www.w3.org/2000/svg" version="1.1" width="1765px" height="1582px" style="shape-rendering:geometricPrecision; text-rendering:geometricPrecision; image-rendering:optimizeQuality; fill-rule:evenodd; clip-rule:evenodd" xmlns:xlink="http://www.w3.org/1999/xlink">
<g><path style="opacity:0.995" fill="#750f0d" d="M 533.5,148.5 C 621.712,143.377 706.046,158.877 786.5,195C 808.651,205.568 829.651,217.902 849.5,232C 853.333,234.5 856.5,237.667 859,241.5C 865.492,255.466 869.492,270.133 871,285.5C 874.948,313.689 873.948,341.689 868,369.5C 866.161,376.179 863.494,382.512 860,388.5C 857.232,391.941 853.899,394.607 850,396.5C 805.828,334.686 747.661,291.519 675.5,267C 588.924,240.406 506.924,250.406 429.5,297C 401.032,316.13 373.699,336.797 347.5,359C 308.872,382.602 271.538,380.602 235.5,353C 216.246,336.001 204.079,314.835 199,289.5C 195.212,264.146 191.378,238.813 187.5,213.5C 274.166,195.733 360.833,177.9 447.5,160C 476.098,154.51 504.765,150.676 533.5,148.5 Z"/></g>
<g><path style="opacity:0.995" fill="#750f0d" d="M 1237.5,148.5 C 1281.43,146.621 1325.1,149.121 1368.5,156C 1462.55,174.977 1556.55,194.143 1650.5,213.5C 1646.99,239.538 1643.16,265.538 1639,291.5C 1630.86,326.664 1610.69,352.164 1578.5,368C 1548.39,380.137 1519.72,377.47 1492.5,360C 1461.85,334.015 1429.52,310.348 1395.5,289C 1309.95,244.382 1222.62,240.715 1133.5,278C 1074.53,304.464 1026.2,343.964 988.5,396.5C 982.137,393.637 977.637,388.97 975,382.5C 967.644,362.678 964.478,342.178 965.5,321C 964.717,295.424 968.55,270.59 977,246.5C 979.074,241.525 982.241,237.358 986.5,234C 1049.66,189.936 1119.66,162.936 1196.5,153C 1210.29,151.279 1223.96,149.779 1237.5,148.5 Z"/></g>
<g><path style="opacity:0.995" fill="#d19e34" d="M 577.5,354.5 C 669.102,357.685 735.269,400.018 776,481.5C 804.415,550.645 800.082,617.645 763,682.5C 723.546,743.5 667.379,777.334 594.5,784C 509.444,786.816 443.611,752.983 397,682.5C 386.559,665.28 378.559,646.947 373,627.5C 337.667,668.833 302.333,710.167 267,751.5C 251.84,769.329 233.007,774.829 210.5,768C 185.936,756.036 176.436,736.536 182,709.5C 183.789,703.716 186.455,698.383 190,693.5C 268,602.833 346,512.167 424,421.5C 466.214,378.813 517.38,356.48 577.5,354.5 Z"/></g>
<g><path style="opacity:0.995" fill="#d19e34" d="M 1251.5,354.5 C 1314.8,355.246 1368.3,378.246 1412,423.5C 1489.33,513.5 1566.67,603.5 1644,693.5C 1652.66,705.482 1655.66,718.815 1653,733.5C 1643.34,762.921 1623.18,774.754 1592.5,769C 1586.61,767.388 1581.28,764.721 1576.5,761C 1537.65,716.78 1499.15,672.28 1461,627.5C 1440.61,695.223 1397.78,742.723 1332.5,770C 1254,797.249 1182,785.582 1116.5,735C 1056.86,682.169 1032.03,616.002 1042,536.5C 1058.26,451.474 1107.09,394.308 1188.5,365C 1209.19,358.738 1230.19,355.238 1251.5,354.5 Z"/></g>
<g><path style="opacity:1" fill="#76100e" d="M 566.5,449.5 C 629.497,447.059 672.331,475.059 695,533.5C 707.993,583.846 695.493,626.68 657.5,662C 620.076,690.736 579.076,697.069 534.5,681C 480.93,655.049 456.43,612.215 461,552.5C 473.033,494.299 508.2,459.965 566.5,449.5 Z"/></g>
<g><path style="opacity:0.999" fill="#76100e" d="M 1241.5,449.5 C 1304.5,447.059 1347.33,475.059 1370,533.5C 1383,583.835 1370.5,626.668 1332.5,662C 1290.71,693.3 1246.05,697.967 1198.5,676C 1157.74,652.175 1136.41,616.509 1134.5,569C 1136.61,523.416 1156.95,488.749 1195.5,465C 1210.04,457.097 1225.38,451.93 1241.5,449.5 Z"/></g>
<g><path style="opacity:0.992" fill="#ad6221" d="M 905.5,479.5 C 936.546,476.6 959.046,488.933 973,516.5C 978.619,531.701 978.952,547.034 974,562.5C 957.982,610.894 938.649,657.894 916,703.5C 893.886,659.164 874.886,613.497 859,566.5C 846.982,528.726 858.482,500.892 893.5,483C 897.623,481.808 901.623,480.641 905.5,479.5 Z"/></g>
<g><path style="opacity:1" fill="#ac6221" d="M 574.5,509.5 C 609.578,509.103 631.411,525.769 640,559.5C 642.863,596.615 626.363,619.781 590.5,629C 552.405,631.208 529.239,613.708 521,576.5C 520.296,539.194 538.13,516.861 574.5,509.5 Z"/></g>
<g><path style="opacity:1" fill="#ac6221" d="M 1245.5,509.5 C 1282.44,507.96 1305.6,524.96 1315,560.5C 1316.65,596.507 1300.15,619.34 1265.5,629C 1235.38,632.193 1213.54,620.36 1200,593.5C 1188.41,556.576 1199.91,529.743 1234.5,513C 1238.38,512.136 1242.05,510.97 1245.5,509.5 Z"/></g>
<g><path style="opacity:0.989" fill="#cf9b33" d="M 879.5,770.5 C 854.759,770.823 830.092,770.49 805.5,769.5C 823.278,744.279 837.111,716.946 847,687.5C 857.849,715.192 868.682,742.859 879.5,770.5 Z"/></g>
<g><path style="opacity:0.991" fill="#cf9b33" d="M 1030.5,769.5 C 1003.83,770.167 977.167,770.833 950.5,771.5C 962.473,742.892 974.973,714.559 988,686.5C 999.023,715.882 1013.19,743.549 1030.5,769.5 Z"/></g>
<g><path style="opacity:0.992" fill="#cd9632" d="M 805.5,769.5 C 830.092,770.49 854.759,770.823 879.5,770.5C 885.889,787.612 892.556,804.612 899.5,821.5C 852.209,820.51 804.876,820.176 757.5,820.5C 775.585,805.416 791.585,788.416 805.5,769.5 Z"/></g>
<g><path style="opacity:0.995" fill="#cd9632" d="M 1030.5,769.5 C 1043.67,788.68 1059.34,805.68 1077.5,820.5C 1027.76,820.172 978.095,820.505 928.5,821.5C 935.266,804.519 942.599,787.853 950.5,771.5C 977.167,770.833 1003.83,770.167 1030.5,769.5 Z"/></g>
<g><path style="opacity:0.994" fill="#ca9230" d="M 757.5,820.5 C 804.876,820.176 852.209,820.51 899.5,821.5C 903.317,833.121 907.817,844.455 913,855.5C 917.942,843.957 923.109,832.624 928.5,821.5C 978.095,820.505 1027.76,820.172 1077.5,820.5C 1123.21,856.024 1175.21,875.524 1233.5,879C 1304.51,883.108 1366.84,862.108 1420.5,816C 1434.02,803.984 1446.68,791.15 1458.5,777.5C 1459.48,812.05 1457.15,846.383 1451.5,880.5C 1092.9,881.499 734.236,881.833 375.5,881.5C 375.333,846.498 375.5,811.498 376,776.5C 436.746,849.772 514.912,883.605 610.5,878C 665.221,872.827 714.221,853.661 757.5,820.5 Z"/></g>
<g><path style="opacity:1" fill="#c88e2f" d="M 1451.5,880.5 C 1449.67,892.628 1447.34,904.628 1444.5,916.5C 1088.17,916.5 731.833,916.5 375.5,916.5C 375.5,904.833 375.5,893.167 375.5,881.5C 734.236,881.833 1092.9,881.499 1451.5,880.5 Z"/></g>
<g><path style="opacity:1" fill="#c58b2e" d="M 375.5,916.5 C 731.833,916.5 1088.17,916.5 1444.5,916.5C 1441.65,931.391 1437.98,946.058 1433.5,960.5C 1080.83,960.5 728.167,960.5 375.5,960.5C 375.5,945.833 375.5,931.167 375.5,916.5 Z"/></g>
<g><path style="opacity:0.999" fill="#c3862d" d="M 375.5,960.5 C 728.167,960.5 1080.83,960.5 1433.5,960.5C 1426.83,983.185 1419.16,1005.52 1410.5,1027.5C 1189.5,1027.5 968.5,1027.5 747.5,1027.5C 748.472,1010.55 748.805,993.547 748.5,976.5C 711.875,978.165 685.208,995.165 668.5,1027.5C 570.833,1027.5 473.167,1027.5 375.5,1027.5C 375.5,1005.17 375.5,982.833 375.5,960.5 Z"/></g>
<g><path style="opacity:0.999" fill="#c0822c" d="M 375.5,1027.5 C 473.167,1027.5 570.833,1027.5 668.5,1027.5C 663.792,1038 660.792,1049 659.5,1060.5C 564.833,1060.5 470.167,1060.5 375.5,1060.5C 375.5,1049.5 375.5,1038.5 375.5,1027.5 Z"/></g>
<g><path style="opacity:0.999" fill="#c0822c" d="M 747.5,1027.5 C 968.5,1027.5 1189.5,1027.5 1410.5,1027.5C 1405.77,1038.62 1400.77,1049.62 1395.5,1060.5C 1178.43,1060.83 961.43,1060.5 744.5,1059.5C 746.379,1048.92 747.379,1038.26 747.5,1027.5 Z"/></g>
<g><path style="opacity:0.999" fill="#be7f2a" d="M 744.5,1059.5 C 961.43,1060.5 1178.43,1060.83 1395.5,1060.5C 1388.17,1076.51 1379.83,1091.84 1370.5,1106.5C 1158.17,1106.5 945.833,1106.5 733.5,1106.5C 738.566,1091.17 742.233,1075.51 744.5,1059.5 Z"/></g>
<g><path style="opacity:0.999" fill="#be7f2a" d="M 375.5,1060.5 C 470.167,1060.5 564.833,1060.5 659.5,1060.5C 657.71,1076.33 654.043,1091.66 648.5,1106.5C 557.5,1106.5 466.5,1106.5 375.5,1106.5C 375.5,1091.17 375.5,1075.83 375.5,1060.5 Z"/></g>
<g><path style="opacity:0.998" fill="#bc7b29" d="M 375.5,1106.5 C 466.5,1106.5 557.5,1106.5 648.5,1106.5C 643.912,1116.68 638.579,1126.35 632.5,1135.5C 547.173,1133.5 461.506,1132.84 375.5,1133.5C 375.5,1124.5 375.5,1115.5 375.5,1106.5 Z"/></g>
<g><path style="opacity:0.999" fill="#bd7b29" d="M 733.5,1106.5 C 945.833,1106.5 1158.17,1106.5 1370.5,1106.5C 1365.92,1116 1360.59,1125 1354.5,1133.5C 1144.17,1133.5 933.833,1133.5 723.5,1133.5C 727.225,1124.66 730.559,1115.66 733.5,1106.5 Z"/></g>
<g><path style="opacity:0.998" fill="#ba7829" d="M 375.5,1133.5 C 461.506,1132.84 547.173,1133.5 632.5,1135.5C 626.669,1145.81 619.836,1155.48 612,1164.5C 605.627,1172.37 598.461,1179.37 590.5,1185.5C 518.833,1185.5 447.167,1185.5 375.5,1185.5C 375.5,1168.17 375.5,1150.83 375.5,1133.5 Z"/></g>
<g><path style="opacity:0.999" fill="#ba7829" d="M 723.5,1133.5 C 933.833,1133.5 1144.17,1133.5 1354.5,1133.5C 1342.96,1151.7 1330.29,1169.03 1316.5,1185.5C 1109.43,1185.17 902.43,1185.5 695.5,1186.5C 706.109,1169.62 715.443,1151.95 723.5,1133.5 Z"/></g>
<g><path style="opacity:0.995" fill="#b87427" d="M 375.5,1185.5 C 447.167,1185.5 518.833,1185.5 590.5,1185.5C 551.987,1220.24 506.653,1240.08 454.5,1245C 428.169,1245.5 401.835,1245.67 375.5,1245.5C 375.5,1225.5 375.5,1205.5 375.5,1185.5 Z"/></g>
<g><path style="opacity:0.999" fill="#b77327" d="M 1316.5,1185.5 C 1298.17,1210.07 1277.5,1232.74 1254.5,1253.5C 1047.83,1253.5 841.167,1253.5 634.5,1253.5C 657.84,1233.75 678.174,1211.42 695.5,1186.5C 902.43,1185.5 1109.43,1185.17 1316.5,1185.5 Z"/></g>
<g><path style="opacity:0.999" fill="#b47026" d="M 634.5,1253.5 C 841.167,1253.5 1047.83,1253.5 1254.5,1253.5C 1249.21,1258.49 1243.88,1263.49 1238.5,1268.5C 1031.24,1267.5 823.903,1267.17 616.5,1267.5C 622.461,1262.84 628.461,1258.18 634.5,1253.5 Z"/></g>
<g><path style="opacity:0.999" fill="#b46e25" d="M 616.5,1267.5 C 823.903,1267.17 1031.24,1267.5 1238.5,1268.5C 1226.44,1279.56 1213.77,1289.89 1200.5,1299.5C 987.167,1299.5 773.833,1299.5 560.5,1299.5C 580.076,1290.38 598.743,1279.71 616.5,1267.5 Z"/></g>
<g><path style="opacity:0.996" fill="#b26b24" d="M 560.5,1299.5 C 773.833,1299.5 987.167,1299.5 1200.5,1299.5C 1185.2,1311.48 1169.2,1322.48 1152.5,1332.5C 893.5,1332.5 634.5,1332.5 375.5,1332.5C 375.5,1330.17 375.5,1327.83 375.5,1325.5C 402.835,1325.67 430.169,1325.5 457.5,1325C 493.274,1322.15 527.608,1313.65 560.5,1299.5 Z"/></g>
<g><path style="opacity:0.999" fill="#b06823" d="M 375.5,1332.5 C 634.5,1332.5 893.5,1332.5 1152.5,1332.5C 1110.56,1359.47 1065.89,1381.13 1018.5,1397.5C 804.334,1396.5 590.001,1396.17 375.5,1396.5C 375.5,1375.17 375.5,1353.83 375.5,1332.5 Z"/></g>
<g><path style="opacity:0.998" fill="#ad6422" d="M 375.5,1396.5 C 590.001,1396.17 804.334,1396.5 1018.5,1397.5C 960.796,1417.27 901.463,1428.77 840.5,1432C 685.5,1432.5 530.5,1432.67 375.5,1432.5C 375.5,1420.5 375.5,1408.5 375.5,1396.5 Z"/></g>
</svg>
