<?xml version="1.0" encoding="UTF-8"?>
<!DOCTYPE svg PUBLIC "-//W3C//DTD SVG 1.1//EN" "http://www.w3.org/Graphics/SVG/1.1/DTD/svg11.dtd">
<svg xmlns="http://www.w3.org/2000/svg" version="1.1" width="4096px" height="1299px" style="shape-rendering:geometricPrecision; text-rendering:geometricPrecision; image-rendering:optimizeQuality; fill-rule:evenodd; clip-rule:evenodd" xmlns:xlink="http://www.w3.org/1999/xlink">
<g><path style="opacity:0.991" fill="#d19f34" d="M 205.5,230.5 C 291.834,230.333 378.167,230.5 464.5,231C 527.726,239.923 572.226,273.423 598,331.5C 602.365,345.161 604.865,359.161 605.5,373.5C 603.615,401.218 588.782,416.218 561,418.5C 540.359,417.524 526.026,407.524 518,388.5C 512.828,348.661 490.328,326.161 450.5,321C 388.164,320.167 325.831,320.333 263.5,321.5C 308.944,402.882 354.277,484.382 399.5,566C 354.42,647.495 309.087,728.828 263.5,810C 334.167,810.333 404.833,810.667 475.5,811C 502.907,813.413 517.907,828.413 520.5,856C 519.096,880.064 506.763,895.064 483.5,901C 391.167,901.667 298.833,901.667 206.5,901C 180.087,895.921 163.253,880.421 156,854.5C 153.643,840.443 154.977,826.776 160,813.5C 202.676,737.479 245.343,661.479 288,585.5C 290.984,578.864 294.151,572.364 297.5,566C 294.151,559.636 290.984,553.136 288,546.5C 245.483,471.295 203.149,395.961 161,320.5C 148.909,291.359 154.076,265.859 176.5,244C 185.208,237.311 194.875,232.811 205.5,230.5 Z"/></g>
<g><path style="opacity:0.983" fill="#d29f34" d="M 982.5,403.5 C 1012.27,400.82 1032.77,413.154 1044,440.5C 1051.1,470.445 1041.27,492.611 1014.5,507C 984.458,517.014 960.958,508.848 944,482.5C 932.878,455.833 938.044,432.999 959.5,414C 966.748,409.425 974.414,405.925 982.5,403.5 Z"/></g>
<g><path style="opacity:0.983" fill="#d19e34" d="M 2359.5,403.5 C 2384.72,400.892 2403.89,410.225 2417,431.5C 2429.2,460.881 2422.7,485.048 2397.5,504C 2377.43,514.425 2357.77,513.759 2338.5,502C 2313.98,481.721 2308.81,457.221 2323,428.5C 2332.05,415.549 2344.21,407.216 2359.5,403.5 Z"/></g>
<g><path style="opacity:0.984" fill="#d19f34" d="M 3876.5,403.5 C 3907.78,400.873 3928.61,414.206 3939,443.5C 3944.69,473.477 3933.86,494.977 3906.5,508C 3882.8,515.118 3862.3,509.951 3845,492.5C 3830.56,472.535 3828.89,451.535 3840,429.5C 3848.75,416.04 3860.92,407.373 3876.5,403.5 Z"/></g>
<g><path style="opacity:0.989" fill="#d29f34" d="M 2655.5,519.5 C 2711.83,515.87 2761.17,532.37 2803.5,569C 2814.26,579.44 2824.43,590.273 2834,601.5C 2898.1,676.686 2962.43,751.686 3027,826.5C 3039.93,845.743 3039.6,864.743 3026,883.5C 3004.34,903.08 2982.34,903.414 2960,884.5C 2927.32,845.489 2894.32,806.822 2861,768.5C 2836.06,844.77 2784.23,891.27 2705.5,908C 2617.18,918.084 2549.35,885.918 2502,811.5C 2475.04,759.552 2470.38,705.552 2488,649.5C 2518.44,573.372 2574.27,530.038 2655.5,519.5 Z M 2665.5,606.5 C 2718.77,607.014 2755.27,631.68 2775,680.5C 2789.1,733.561 2773.93,775.728 2729.5,807C 2698.98,824.112 2666.98,827.112 2633.5,816C 2583.18,792.225 2560.68,752.391 2566,696.5C 2576.19,652.642 2602.69,623.808 2645.5,610C 2652.34,608.996 2659,607.829 2665.5,606.5 Z"/></g>
<g><path style="opacity:0.989" fill="#d29f34" d="M 3395.5,519.5 C 3454.85,516.221 3506.19,534.388 3549.5,574C 3622.65,658.155 3695.48,742.655 3768,827.5C 3779.6,846.043 3779.27,864.377 3767,882.5C 3748.27,901.112 3727.77,903.279 3705.5,889C 3670.61,848.783 3635.78,808.616 3601,768.5C 3576.31,845.192 3524.47,891.692 3445.5,908C 3361.67,918.313 3295.83,889.147 3248,820.5C 3210.8,756.712 3207.8,691.378 3239,624.5C 3273.46,563.601 3325.63,528.601 3395.5,519.5 Z M 3405.5,606.5 C 3455.33,606.687 3491.16,629.02 3513,673.5C 3530.83,727.314 3517.33,771.147 3472.5,805C 3447.43,821.291 3420.09,826.624 3390.5,821C 3337.57,805.402 3308.91,770.069 3304.5,715C 3308.2,661.973 3335.2,626.973 3385.5,610C 3392.34,608.996 3399,607.829 3405.5,606.5 Z"/></g>
<g><path style="opacity:0.987" fill="#d19f35" d="M 1735.5,520.5 C 1806.11,518.573 1863.61,544.573 1908,598.5C 1971.27,525.672 2049.11,504.172 2141.5,534C 2207.72,562.238 2249.56,611.404 2267,681.5C 2268.44,690.482 2269.77,699.482 2271,708.5C 2271.67,761.5 2271.67,814.5 2271,867.5C 2265.34,889.162 2251.34,900.495 2229,901.5C 2207.11,900.617 2193.11,889.617 2187,868.5C 2186.94,814.818 2186.27,761.151 2185,707.5C 2176.35,655.202 2146.85,621.368 2096.5,606C 2048.06,596.784 2007.9,610.617 1976,647.5C 1963.76,663.519 1955.76,681.519 1952,701.5C 1951.98,757.198 1951.31,812.865 1950,868.5C 1940.47,896.294 1921.3,906.461 1892.5,899C 1878.35,892.526 1869.85,881.693 1867,866.5C 1866.67,815.5 1866.33,764.5 1866,713.5C 1859.46,658.288 1829.62,622.455 1776.5,606C 1722.95,595.884 1680.45,612.717 1649,656.5C 1639.85,671.269 1633.85,687.269 1631,704.5C 1630.98,759.87 1630.31,815.204 1629,870.5C 1618.76,896.539 1599.92,906.039 1572.5,899C 1557.75,892.578 1548.92,881.411 1546,865.5C 1545.33,814.167 1545.33,762.833 1546,711.5C 1553.29,630.058 1593.79,571.892 1667.5,537C 1689.41,528.079 1712.08,522.579 1735.5,520.5 Z"/></g>
<g><path style="opacity:0.989" fill="#d29f34" d="M 1276.5,521.5 C 1348.44,520.176 1404.94,548.51 1446,606.5C 1488.95,677.627 1489.29,748.96 1447,820.5C 1396.8,890.151 1328.97,917.651 1243.5,903C 1176.31,885.781 1129.81,845.281 1104,781.5C 1080.77,709.14 1093.11,643.807 1141,585.5C 1177.63,546.27 1222.8,524.936 1276.5,521.5 Z M 1273.5,607.5 C 1328.65,605.621 1366.48,629.955 1387,680.5C 1398.7,723.554 1389.2,761.054 1358.5,793C 1323.18,823.728 1283.85,830.062 1240.5,812C 1196.77,788.72 1176.27,752.22 1179,702.5C 1188.74,648.922 1220.24,617.256 1273.5,607.5 Z"/></g>
<g><path style="opacity:0.99" fill="#d29f35" d="M 713.5,522.5 C 790.964,517.793 847.464,549.459 883,617.5C 890.51,634.372 895.177,652.039 897,670.5C 897.667,735.5 897.667,800.5 897,865.5C 890.965,887.702 876.465,899.369 853.5,900.5C 833.395,899.86 819.562,890.194 812,871.5C 810.681,806.878 810.014,742.211 810,677.5C 805.165,642.674 785.999,620.174 752.5,610C 712.55,603.559 683.05,618.059 664,653.5C 663.066,657.637 661.732,661.637 660,665.5C 658.695,730.143 658.029,794.809 658,859.5C 654.508,885.329 639.842,898.996 614,900.5C 588.291,899.312 573.624,885.979 570,860.5C 569.333,800.5 569.333,740.5 570,680.5C 575.126,610.323 609.626,561.156 673.5,533C 686.735,528.747 700.069,525.247 713.5,522.5 Z"/></g>
<g><path style="opacity:0.994" fill="#d19e34" d="M 983.5,545.5 C 1008,542.827 1024.84,552.827 1034,575.5C 1034.33,579.167 1034.67,582.833 1035,586.5C 1035.98,681.186 1035.64,775.852 1034,870.5C 1023.52,895.255 1005.02,904.755 978.5,899C 962.229,892.612 952.729,880.778 950,863.5C 949.333,769.833 949.333,676.167 950,582.5C 953.712,563.293 964.879,550.96 983.5,545.5 Z"/></g>
<g><path style="opacity:0.986" fill="#d19f34" d="M 2360.5,545.5 C 2388.52,543.067 2405.69,555.4 2412,582.5C 2412.67,676.167 2412.67,769.833 2412,863.5C 2409.27,880.778 2399.77,892.612 2383.5,899C 2356.98,904.755 2338.48,895.255 2328,870.5C 2327.67,868.5 2327.33,866.5 2327,864.5C 2326.33,770.167 2326.33,675.833 2327,581.5C 2330.81,562.528 2341.98,550.528 2360.5,545.5 Z"/></g>
<g><path style="opacity:0.986" fill="#d29e34" d="M 3877.5,545.5 C 3902.02,542.836 3918.86,552.836 3928,575.5C 3928.99,579.442 3929.66,583.442 3930,587.5C 3930.67,678.167 3930.67,768.833 3930,859.5C 3928.28,878.791 3918.45,891.958 3900.5,899C 3870.36,904.768 3851.53,892.934 3844,863.5C 3843.33,770.167 3843.33,676.833 3844,583.5C 3847.64,564.038 3858.8,551.372 3877.5,545.5 Z"/></g>
<g><path style="opacity:0.983" fill="#d29f34" d="M 3083.5,659.5 C 3111.02,657.206 3130.52,668.539 3142,693.5C 3150.22,721.676 3142.39,744.01 3118.5,760.5C 3086.91,773.988 3061.74,766.655 3043,738.5C 3031.45,709.511 3037.95,685.678 3062.5,667C 3069.16,663.172 3076.16,660.672 3083.5,659.5 Z"/></g>
<g><path style="opacity:0.985" fill="#d29f34" d="M 1159.5,941.5 C 1170.12,940.208 1180.12,942.041 1189.5,947C 1197.68,955.348 1206.01,963.514 1214.5,971.5C 1250.13,996.564 1288.46,1001.4 1329.5,986C 1348.14,978.009 1363.47,966.009 1375.5,950C 1389.71,940.34 1404.71,939.007 1420.5,946C 1438.88,958.787 1444.38,975.954 1437,997.5C 1431.7,1006.81 1424.87,1014.98 1416.5,1022C 1385.11,1049.26 1348.44,1064.26 1306.5,1067C 1275.23,1069.76 1244.57,1066.76 1214.5,1058C 1181.43,1046.91 1154.6,1027.41 1134,999.5C 1125.76,980.914 1128.59,964.414 1142.5,950C 1147.89,946.489 1153.56,943.655 1159.5,941.5 Z"/></g>
</svg>
